# xmcd
#
# Track frame offsets:
#	150
#	9955
#	25833
#	45448
#	64803
#	83298
#	105993
#	125445
#	143198
#	162170
#	181903
#	193375
#	212893
#	232203
#	251218
#	269090
#	288468
#
# Disc length: 4123 seconds
#
# Revision: 6
# Processed by: cddbd v1.5.2PL0 Copyright (c) Steve Scherf et al.
# Submitted via: EasyCDDAExtractor 15.2.5.1
#
DISCID=f3101911
DTITLE=彭羚 - 窗外
DYEAR=1980
DGENRE=Alternative
TTITLE0=音樂盒
TTITLE1=小玩意
TTITLE2=只想得到愛
TTITLE3=注定相愛(合唱：張信哲)
TTITLE4=彷如隔世
TTITLE5=情動
TTITLE6=愛多年
TTITLE7=完全因你
TTITLE8=你知得太多
TTITLE9=盼那天再步近
TTITLE10=窗外
TTITLE11=如夢出醒
TTITLE12=仍然是最愛你
TTITLE13=等得太久
TTITLE14=讓我跟你走
TTITLE15=未完的小說
TTITLE16=愛你愛到太傷痛(合唱：巫啟賢)
EXTD=
EXTT0=
EXTT1=
EXTT2=
EXTT3=
EXTT4=
EXTT5=
EXTT6=
EXTT7=
EXTT8=
EXTT9=
EXTT10=
EXTT11=
EXTT12=
EXTT13=
EXTT14=
EXTT15=
EXTT16=
PLAYORDER=
